{
    "asset" : {
        "generator" : "Khronos glTF Blender I/O v3.3.27",
        "version" : "2.0"
    },
    "extensionsUsed" : [
        "KHR_materials_specular",
        "KHR_materials_ior"
    ],
    "scene" : 0,
    "scenes" : [
        {
            "name" : "Scene",
            "nodes" : [
                0,
                1,
                2,
                3,
                4,
                5,
                6
            ]
        }
    ],
    "nodes" : [
        {
            "mesh" : 0,
            "name" : "Plano.001",
            "rotation" : [
                0,
                0.7071068286895752,
                0,
                0.7071068286895752
            ],
            "translation" : [
                -0.08053281903266907,
                0.174009308218956,
                -0.04627774655818939
            ]
        },
        {
            "mesh" : 1,
            "name" : "Plano.002",
            "rotation" : [
                0,
                0.7071068286895752,
                0,
                0.7071068286895752
            ],
            "translation" : [
                0.07383336126804352,
                0.174009308218956,
                -0.051911547780036926
            ]
        },
        {
            "mesh" : 2,
            "name" : "Plano.003",
            "rotation" : [
                0,
                0.7071068286895752,
                0,
                0.7071068286895752
            ],
            "translation" : [
                -0.08053282648324966,
                0.174009308218956,
                0.04611662030220032
            ]
        },
        {
            "mesh" : 3,
            "name" : "Texto",
            "rotation" : [
                0.5000000596046448,
                0.5000000596046448,
                -0.5,
                0.5
            ],
            "scale" : [
                0.4934556484222412,
                0.4934556484222412,
                0.4934556484222412
            ],
            "translation" : [
                0.2287328839302063,
                -0.032576482743024826,
                0.017446015030145645
            ]
        },
        {
            "mesh" : 4,
            "name" : "Texto.001",
            "rotation" : [
                0.5000000596046448,
                0.5000000596046448,
                -0.5,
                0.5
            ],
            "scale" : [
                0.38301968574523926,
                0.38301968574523926,
                0.38301968574523926
            ],
            "translation" : [
                0.007654443383216858,
                -0.032576482743024826,
                0.31474369764328003
            ]
        },
        {
            "mesh" : 5,
            "name" : "Texto.002",
            "rotation" : [
                0.5000000596046448,
                0.5000000596046448,
                -0.5,
                0.5
            ],
            "scale" : [
                0.5161477327346802,
                0.5161477327346802,
                0.5161477327346802
            ],
            "translation" : [
                0.21546874940395355,
                0.009045280516147614,
                -0.17195826768875122
            ]
        },
        {
            "mesh" : 6,
            "name" : "TQ_ARD-node",
            "translation" : [
                0,
                -0.0066534373909235,
                0
            ]
        }
    ],
    "materials" : [
        {
            "doubleSided" : true,
            "name" : "Material.001",
            "pbrMetallicRoughness" : {
                "baseColorFactor" : [
                    0.4902293384075165,
                    0.021092573180794716,
                    0,
                    1
                ],
                "metallicFactor" : 0
            }
        },
        {
            "doubleSided" : true,
            "extensions" : {
                "KHR_materials_specular" : {
                    "specularColorFactor" : [
                        0,
                        0,
                        0
                    ]
                },
                "KHR_materials_ior" : {
                    "ior" : 0
                }
            },
            "name" : "TQ_ARD_front",
            "pbrMetallicRoughness" : {
                "baseColorTexture" : {
                    "index" : 0
                },
                "metallicFactor" : 0,
                "roughnessFactor" : 0.5
            }
        },
        {
            "doubleSided" : true,
            "extensions" : {
                "KHR_materials_specular" : {
                    "specularColorFactor" : [
                        0,
                        0,
                        0
                    ]
                },
                "KHR_materials_ior" : {
                    "ior" : 0
                }
            },
            "name" : "TQ_ARD_back",
            "pbrMetallicRoughness" : {
                "baseColorFactor" : [
                    0.5383538007736206,
                    0.3512982726097107,
                    0.16828669607639313,
                    1
                ],
                "metallicFactor" : 0
            }
        },
        {
            "doubleSided" : true,
            "extensions" : {
                "KHR_materials_specular" : {
                    "specularColorFactor" : [
                        0,
                        0,
                        0
                    ]
                },
                "KHR_materials_ior" : {
                    "ior" : 0
                }
            },
            "name" : "TQ_ARD_edge",
            "pbrMetallicRoughness" : {
                "baseColorTexture" : {
                    "index" : 1
                },
                "metallicFactor" : 0,
                "roughnessFactor" : 0.5
            }
        }
    ],
    "meshes" : [
        {
            "name" : "Plano",
            "primitives" : [
                {
                    "attributes" : {
                        "POSITION" : 0,
                        "NORMAL" : 1,
                        "TEXCOORD_0" : 2
                    },
                    "indices" : 3,
                    "material" : 0
                }
            ]
        },
        {
            "name" : "Plano.001",
            "primitives" : [
                {
                    "attributes" : {
                        "POSITION" : 4,
                        "NORMAL" : 5,
                        "TEXCOORD_0" : 6
                    },
                    "indices" : 7,
                    "material" : 0
                }
            ]
        },
        {
            "name" : "Plano.002",
            "primitives" : [
                {
                    "attributes" : {
                        "POSITION" : 8,
                        "NORMAL" : 9,
                        "TEXCOORD_0" : 10
                    },
                    "indices" : 11,
                    "material" : 0
                }
            ]
        },
        {
            "name" : "Texto",
            "primitives" : [
                {
                    "attributes" : {
                        "POSITION" : 12,
                        "NORMAL" : 13,
                        "TEXCOORD_0" : 14
                    },
                    "indices" : 15,
                    "material" : 0
                }
            ]
        },
        {
            "name" : "Texto.001",
            "primitives" : [
                {
                    "attributes" : {
                        "POSITION" : 16,
                        "NORMAL" : 17,
                        "TEXCOORD_0" : 18
                    },
                    "indices" : 19,
                    "material" : 0
                }
            ]
        },
        {
            "name" : "Texto.002",
            "primitives" : [
                {
                    "attributes" : {
                        "POSITION" : 20,
                        "NORMAL" : 21,
                        "TEXCOORD_0" : 22
                    },
                    "indices" : 23,
                    "material" : 0
                }
            ]
        },
        {
            "name" : "TQ_ARD-geom",
            "primitives" : [
                {
                    "attributes" : {
                        "POSITION" : 24,
                        "NORMAL" : 25,
                        "TEXCOORD_0" : 26
                    },
                    "indices" : 27,
                    "material" : 1
                },
                {
                    "attributes" : {
                        "POSITION" : 28,
                        "NORMAL" : 29,
                        "TEXCOORD_0" : 30
                    },
                    "indices" : 31,
                    "material" : 2
                },
                {
                    "attributes" : {
                        "POSITION" : 32,
                        "NORMAL" : 33,
                        "TEXCOORD_0" : 34
                    },
                    "indices" : 35,
                    "material" : 3
                }
            ]
        }
    ],
    "textures" : [
        {
            "sampler" : 0,
            "source" : 0
        },
        {
            "sampler" : 0,
            "source" : 1
        }
    ],
    "images" : [
        {
            "bufferView" : 28,
            "mimeType" : "image/jpeg",
            "name" : "1"
        },
        {
            "bufferView" : 37,
            "mimeType" : "image/png",
            "name" : "TQ_ARD-I1"
        }
    ],
    "accessors" : [
        {
            "bufferView" : 0,
            "componentType" : 5126,
            "count" : 144,
            "max" : [
                0.1397622674703598,
                -0.20501761138439178,
                0.27914556860923767
            ],
            "min" : [
                -0.23103608191013336,
                -0.20674856007099152,
                0.2130943238735199
            ],
            "type" : "VEC3"
        },
        {
            "bufferView" : 1,
            "componentType" : 5126,
            "count" : 144,
            "type" : "VEC3"
        },
        {
            "bufferView" : 2,
            "componentType" : 5126,
            "count" : 144,
            "type" : "VEC2"
        },
        {
            "bufferView" : 3,
            "componentType" : 5123,
            "count" : 216,
            "type" : "SCALAR"
        },
        {
            "bufferView" : 4,
            "componentType" : 5126,
            "count" : 144,
            "max" : [
                -0.2508041262626648,
                -0.20501761138439178,
                0.0483083613216877
            ],
            "min" : [
                -0.31685540080070496,
                -0.20674856007099152,
                -0.19251063466072083
            ],
            "type" : "VEC3"
        },
        {
            "bufferView" : 5,
            "componentType" : 5126,
            "count" : 144,
            "type" : "VEC3"
        },
        {
            "bufferView" : 6,
            "componentType" : 5126,
            "count" : 144,
            "type" : "VEC2"
        },
        {
            "bufferView" : 7,
            "componentType" : 5123,
            "count" : 216,
            "type" : "SCALAR"
        },
        {
            "bufferView" : 8,
            "componentType" : 5126,
            "count" : 144,
            "max" : [
                0.2329626977443695,
                -0.12808571755886078,
                0.27914556860923767
            ],
            "min" : [
                0.2312317192554474,
                -0.20644253492355347,
                0.2130943238735199
            ],
            "type" : "VEC3"
        },
        {
            "bufferView" : 9,
            "componentType" : 5126,
            "count" : 144,
            "type" : "VEC3"
        },
        {
            "bufferView" : 10,
            "componentType" : 5126,
            "count" : 144,
            "type" : "VEC2"
        },
        {
            "bufferView" : 11,
            "componentType" : 5123,
            "count" : 216,
            "type" : "SCALAR"
        },
        {
            "bufferView" : 12,
            "componentType" : 5126,
            "count" : 1538,
            "max" : [
                0.07998812198638916,
                0.0010000000474974513,
                0.0005055429064668715
            ],
            "min" : [
                0.0006178857875056565,
                -0.0010000000474974513,
                -0.03881446272134781
            ],
            "type" : "VEC3"
        },
        {
            "bufferView" : 13,
            "componentType" : 5126,
            "count" : 1538,
            "type" : "VEC3"
        },
        {
            "bufferView" : 14,
            "componentType" : 5126,
            "count" : 1538,
            "type" : "VEC2"
        },
        {
            "bufferView" : 15,
            "componentType" : 5123,
            "count" : 2856,
            "type" : "SCALAR"
        },
        {
            "bufferView" : 16,
            "componentType" : 5126,
            "count" : 2866,
            "max" : [
                0.08257200568914413,
                0.0010000000474974513,
                0.0005055429064668715
            ],
            "min" : [
                0.003594971727579832,
                -0.0010000000474974513,
                -0.03881446272134781
            ],
            "type" : "VEC3"
        },
        {
            "bufferView" : 17,
            "componentType" : 5126,
            "count" : 2866,
            "type" : "VEC3"
        },
        {
            "bufferView" : 18,
            "componentType" : 5126,
            "count" : 2866,
            "type" : "VEC2"
        },
        {
            "bufferView" : 19,
            "componentType" : 5123,
            "count" : 5220,
            "type" : "SCALAR"
        },
        {
            "bufferView" : 20,
            "componentType" : 5126,
            "count" : 982,
            "max" : [
                0.07302285730838776,
                0.0010000000474974513,
                0.0005055429064668715
            ],
            "min" : [
                0.003594971727579832,
                -0.0010000000474974513,
                -0.03881446272134781
            ],
            "type" : "VEC3"
        },
        {
            "bufferView" : 21,
            "componentType" : 5126,
            "count" : 982,
            "type" : "VEC3"
        },
        {
            "bufferView" : 22,
            "componentType" : 5126,
            "count" : 982,
            "type" : "VEC2"
        },
        {
            "bufferView" : 23,
            "componentType" : 5123,
            "count" : 1824,
            "type" : "SCALAR"
        },
        {
            "bufferView" : 24,
            "componentType" : 5126,
            "count" : 974,
            "max" : [
                0.1215902790427208,
                0.05208980292081833,
                0.18758782744407654
            ],
            "min" : [
                -0.12159030139446259,
                -0.02608579583466053,
                -0.1875878870487213
            ],
            "type" : "VEC3"
        },
        {
            "bufferView" : 25,
            "componentType" : 5126,
            "count" : 974,
            "type" : "VEC3"
        },
        {
            "bufferView" : 26,
            "componentType" : 5126,
            "count" : 974,
            "type" : "VEC2"
        },
        {
            "bufferView" : 27,
            "componentType" : 5123,
            "count" : 1950,
            "type" : "SCALAR"
        },
        {
            "bufferView" : 29,
            "componentType" : 5126,
            "count" : 828,
            "max" : [
                0.12099923193454742,
                0.050502292811870575,
                0.18553534150123596
            ],
            "min" : [
                -0.12099932134151459,
                -0.026000995188951492,
                -0.18553541600704193
            ],
            "type" : "VEC3"
        },
        {
            "bufferView" : 30,
            "componentType" : 5126,
            "count" : 828,
            "type" : "VEC3"
        },
        {
            "bufferView" : 31,
            "componentType" : 5126,
            "count" : 828,
            "type" : "VEC2"
        },
        {
            "bufferView" : 32,
            "componentType" : 5123,
            "count" : 1950,
            "type" : "SCALAR"
        },
        {
            "bufferView" : 33,
            "componentType" : 5126,
            "count" : 1282,
            "max" : [
                0.1215883120894432,
                0.05208980292081833,
                0.18758782744407654
            ],
            "min" : [
                -0.121588334441185,
                -0.02608579583466053,
                -0.1875878870487213
            ],
            "type" : "VEC3"
        },
        {
            "bufferView" : 34,
            "componentType" : 5126,
            "count" : 1282,
            "type" : "VEC3"
        },
        {
            "bufferView" : 35,
            "componentType" : 5126,
            "count" : 1282,
            "type" : "VEC2"
        },
        {
            "bufferView" : 36,
            "componentType" : 5123,
            "count" : 1956,
            "type" : "SCALAR"
        }
    ],
    "bufferViews" : [
        {
            "buffer" : 0,
            "byteLength" : 1728,
            "byteOffset" : 0,
            "target" : 34962
        },
        {
            "buffer" : 0,
            "byteLength" : 1728,
            "byteOffset" : 1728,
            "target" : 34962
        },
        {
            "buffer" : 0,
            "byteLength" : 1152,
            "byteOffset" : 3456,
            "target" : 34962
        },
        {
            "buffer" : 0,
            "byteLength" : 432,
            "byteOffset" : 4608,
            "target" : 34963
        },
        {
            "buffer" : 0,
            "byteLength" : 1728,
            "byteOffset" : 5040,
            "target" : 34962
        },
        {
            "buffer" : 0,
            "byteLength" : 1728,
            "byteOffset" : 6768,
            "target" : 34962
        },
        {
            "buffer" : 0,
            "byteLength" : 1152,
            "byteOffset" : 8496,
            "target" : 34962
        },
        {
            "buffer" : 0,
            "byteLength" : 432,
            "byteOffset" : 9648,
            "target" : 34963
        },
        {
            "buffer" : 0,
            "byteLength" : 1728,
            "byteOffset" : 10080,
            "target" : 34962
        },
        {
            "buffer" : 0,
            "byteLength" : 1728,
            "byteOffset" : 11808,
            "target" : 34962
        },
        {
            "buffer" : 0,
            "byteLength" : 1152,
            "byteOffset" : 13536,
            "target" : 34962
        },
        {
            "buffer" : 0,
            "byteLength" : 432,
            "byteOffset" : 14688,
            "target" : 34963
        },
        {
            "buffer" : 0,
            "byteLength" : 18456,
            "byteOffset" : 15120,
            "target" : 34962
        },
        {
            "buffer" : 0,
            "byteLength" : 18456,
            "byteOffset" : 33576,
            "target" : 34962
        },
        {
            "buffer" : 0,
            "byteLength" : 12304,
            "byteOffset" : 52032,
            "target" : 34962
        },
        {
            "buffer" : 0,
            "byteLength" : 5712,
            "byteOffset" : 64336,
            "target" : 34963
        },
        {
            "buffer" : 0,
            "byteLength" : 34392,
            "byteOffset" : 70048,
            "target" : 34962
        },
        {
            "buffer" : 0,
            "byteLength" : 34392,
            "byteOffset" : 104440,
            "target" : 34962
        },
        {
            "buffer" : 0,
            "byteLength" : 22928,
            "byteOffset" : 138832,
            "target" : 34962
        },
        {
            "buffer" : 0,
            "byteLength" : 10440,
            "byteOffset" : 161760,
            "target" : 34963
        },
        {
            "buffer" : 0,
            "byteLength" : 11784,
            "byteOffset" : 172200,
            "target" : 34962
        },
        {
            "buffer" : 0,
            "byteLength" : 11784,
            "byteOffset" : 183984,
            "target" : 34962
        },
        {
            "buffer" : 0,
            "byteLength" : 7856,
            "byteOffset" : 195768,
            "target" : 34962
        },
        {
            "buffer" : 0,
            "byteLength" : 3648,
            "byteOffset" : 203624,
            "target" : 34963
        },
        {
            "buffer" : 0,
            "byteLength" : 11688,
            "byteOffset" : 207272,
            "target" : 34962
        },
        {
            "buffer" : 0,
            "byteLength" : 11688,
            "byteOffset" : 218960,
            "target" : 34962
        },
        {
            "buffer" : 0,
            "byteLength" : 7792,
            "byteOffset" : 230648,
            "target" : 34962
        },
        {
            "buffer" : 0,
            "byteLength" : 3900,
            "byteOffset" : 238440,
            "target" : 34963
        },
        {
            "buffer" : 0,
            "byteLength" : 668670,
            "byteOffset" : 242340
        },
        {
            "buffer" : 0,
            "byteLength" : 9936,
            "byteOffset" : 911012,
            "target" : 34962
        },
        {
            "buffer" : 0,
            "byteLength" : 9936,
            "byteOffset" : 920948,
            "target" : 34962
        },
        {
            "buffer" : 0,
            "byteLength" : 6624,
            "byteOffset" : 930884,
            "target" : 34962
        },
        {
            "buffer" : 0,
            "byteLength" : 3900,
            "byteOffset" : 937508,
            "target" : 34963
        },
        {
            "buffer" : 0,
            "byteLength" : 15384,
            "byteOffset" : 941408,
            "target" : 34962
        },
        {
            "buffer" : 0,
            "byteLength" : 15384,
            "byteOffset" : 956792,
            "target" : 34962
        },
        {
            "buffer" : 0,
            "byteLength" : 10256,
            "byteOffset" : 972176,
            "target" : 34962
        },
        {
            "buffer" : 0,
            "byteLength" : 3912,
            "byteOffset" : 982432,
            "target" : 34963
        },
        {
            "buffer" : 0,
            "byteLength" : 767,
            "byteOffset" : 986344
        }
    ],
    "samplers" : [
        {
            "magFilter" : 9729,
            "minFilter" : 9987
        }
    ],
    "buffers" : [
        {
            "byteLength" : 987112,
            "uri" : "data:application/octet-stream;base64,"
        }
    ]
}
